<svg width="500" height="500" viewBox="0 0 500 500" fill="none" xmlns="http://www.w3.org/2000/svg">
<path d="M334 166L329 168C315 182 285 220 259 247C255 252 253 255 254 257C270 280 300 320 326 344L329.5 347L334 348H365C370 348 373 345 370 343C355 325 320 285 301 256C320 230 350 200 371 174C373 170 372 166 369 166H334Z" stroke="white" stroke-width="10" stroke-linecap="round" stroke-linejoin="round"/>
<path d="M267.996 166.664C266.485 165.656 264.515 165.656 263.004 166.664C261.752 167.499 261 168.904 261 170.408V218.076C261 219.854 262.047 221.465 263.672 222.188C264.836 222.705 266.164 222.705 267.328 222.188C268.953 221.465 270 219.854 270 218.076V170.408C270 168.904 269.248 167.499 267.996 166.664Z" fill="white"/>
<path d="M248.563 166.917C247.279 166.346 245.791 166.473 244.621 167.253L244.219 167.521C242.833 168.445 242 170.001 242 171.666V238.403C242 240.019 242.832 241.52 244.202 242.376L244.326 242.454C245.39 243.119 246.689 243.293 247.891 242.933C249.736 242.379 251 240.681 251 238.754V170.666C251 169.045 250.045 167.576 248.563 166.917Z" fill="white"/>
<path d="M148.195 166.752C145.535 167.86 143.499 170.086 142.632 172.833L141.557 176.236C141.188 177.405 141 178.624 141 179.85V334.319C141 335.434 141.155 336.544 141.462 337.616L141.848 338.969C142.594 341.579 144.203 343.859 146.412 345.437L146.871 345.765C148.906 347.219 151.345 348 153.846 348H166.931C169.557 348 172.096 347.061 174.09 345.352L174.256 345.21C176.638 343.168 178.035 340.206 178.095 337.069L180 238L254 336L258.63 341.402C259.5 342.416 260.769 343 262.105 343H262.586C263.491 343 264.36 342.64 265 342C265.64 341.36 266 340.491 266 339.586V292.191C266 290.275 264.784 288.558 262.983 287.903C261.458 287.348 259.738 287.653 258.506 288.709C257.547 289.532 256.978 290.72 256.938 291.982L256 322L177.787 219.648C176.22 217.596 173.329 217.114 171.18 218.546C169.818 219.455 169 220.983 169 222.621V335.586C169 336.491 168.64 337.36 168 338C167.36 338.64 166.491 339 165.586 339H156.121C154.763 339 153.46 338.46 152.5 337.5C151.54 336.54 151 335.237 151 333.879V181.067C151 179.725 151.435 178.42 152.24 177.347C153.354 175.861 155.075 174.953 156.931 174.873L160.729 174.707C163.793 174.574 166.791 175.619 169.109 177.628L172.022 180.152C172.672 180.716 173.26 181.348 173.775 182.037L239.664 270.212C240.514 271.349 241.81 272.067 243.224 272.185L243.591 272.216C245.604 272.384 247.479 271.183 248.169 269.285C248.687 267.86 248.448 266.27 247.535 265.059L176.695 171.244C175.58 169.768 174.139 168.57 172.485 167.742L171.534 167.267C169.867 166.434 168.03 166 166.167 166H151.956C150.665 166 149.386 166.256 148.195 166.752Z" fill="white"/>
</svg>
