<?xml version="1.0" encoding="UTF-8" standalone="no"?>
<svg
   viewBox="0 0 256 256"
   fill="#000000"
   version="1.1"
   id="svg4"
   sodipodi:docname="book.svg"
   inkscape:version="1.4.4 (dcaf3e7d9e, 2026-05-05)"
   xmlns:inkscape="http://www.inkscape.org/namespaces/inkscape"
   xmlns:sodipodi="http://sodipodi.sourceforge.net/DTD/sodipodi-0.dtd"
   xmlns="http://www.w3.org/2000/svg"
   xmlns:svg="http://www.w3.org/2000/svg">
  <defs
     id="defs4" />
  <sodipodi:namedview
     id="namedview4"
     pagecolor="#ffffff"
     bordercolor="#000000"
     borderopacity="0.25"
     inkscape:showpageshadow="2"
     inkscape:pageopacity="0.0"
     inkscape:pagecheckerboard="0"
     inkscape:deskcolor="#d1d1d1"
     inkscape:zoom="4"
     inkscape:cx="153.75"
     inkscape:cy="117.625"
     inkscape:window-width="2518"
     inkscape:window-height="1396"
     inkscape:window-x="0"
     inkscape:window-y="0"
     inkscape:window-maximized="1"
     inkscape:current-layer="svg4" />
  <!-- Left outer cover -->
  <path
     d="M 3,63 C 2.2032671,63.274763 1.3047983,63.550557 0.78000007,64.21 0.17868413,64.965592 0,67 0,67 v 153 c 0,0 0.68146431,2.60223 1.612035,3.42049 C 2.722504,224.39694 6,225 6,225 c 0,0 27.224207,-4.99735 41,-6 12.300795,-0.89529 24.70869,-1.01726 37,0 8.082715,0.66895 24,4 24,4 0,0 -6.40428,-5.69934 -10,-8 -5.650558,-3.61541 -11.722962,-6.63382 -18,-9 -6.128031,-2.31001 -12.53925,-3.92874 -19,-5 -9.231077,-1.53061 -18.906871,0.20693 -28,-2 -2.466972,-0.59874 -4.897876,-1.57679 -7,-3 -2.732482,-1.84998 -5.265176,-4.193 -7,-7 -2.216677,-3.58666 -4,-12 -4,-12 V 61 c 0,0 -8.1663873,0.677934 -12,2 z"
     id="path1"
     sodipodi:nodetypes="ssccscsscssssssccs" />
  <!-- Right outer cover -->
  <path
     d="m 252,63 c -3.81705,-1.369154 -12,-2 -12,-2 v 116 c 0,0 -1.78332,8.41334 -4,12 -1.73482,2.807 -4.26752,5.15002 -7,7 -2.10212,1.42321 -4.53303,2.40126 -7,3 -9.09313,2.20693 -18.76892,0.46939 -28,2 -6.46075,1.07126 -12.87197,2.68999 -19,5 -6.27704,2.36618 -12.34944,5.38459 -18,9 -3.59572,2.30066 -10,8 -10,8 0,0 15.91728,-3.33105 24,-4 12.29131,-1.01726 24.6992,-0.89529 37,0 13.77579,1.00265 41,6 41,6 0,0 2.90891,-0.70175 4.00065,-1.6433 C 253.98687,222.50614 255,220 255,220 V 67 c 0,0 -0.15565,-1.948538 -0.71938,-2.683125 C 253.7462,63.620465 252.82629,63.296386 252,63 Z"
     id="path2"
     sodipodi:nodetypes="sccsssssscsscsccss" />
  <!-- Left page -->
  <path
     d="m 35,30 c 0,0 -2.708682,0.567032 -3.625,1.5 C 30.49668,32.394279 30,35 30,35 v 145 c 0,0 0.635115,2.42042 1.46875,3.28125 C 32.379452,184.22166 35,185 35,185 c 0,0 22.155622,0.90251 33,3 6.833555,1.32173 13.581529,3.30785 20,6 7.016285,2.9429 13.81823,6.56439 20,11 4.40876,3.16342 12,11 12,11 V 68 C 120,68 111.50636,55.854781 106,51 100.38125,46.046132 93.82223,42.093266 87,39 78.450962,35.123783 69.260775,32.532694 60,31 51.771931,29.638223 35,30 35,30 Z"
     id="path3"
     sodipodi:nodetypes="csccscsssccsssc" />
  <!-- Right page -->
  <path
     d="m 220,30 c 0,0 -16.77193,-0.361777 -25,1 -9.26078,1.532694 -18.45096,4.123783 -27,8 -6.82223,3.093266 -13.38125,7.046132 -19,12 -5.50636,4.854781 -14,17 -14,17 v 148 c 0,0 7.59124,-7.83658 12,-11 6.18177,-4.43561 12.98371,-8.0571 20,-11 6.41847,-2.69215 13.16644,-4.67827 20,-6 10.84438,-2.09749 33,-3 33,-3 0,0 2.28972,-1.03461 3.15625,-1.90625 C 224.00263,182.24238 225,180 225,180 V 35 c 0,0 -0.70802,-2.597973 -1.625,-3.5 C 222.49735,30.636663 220,30 220,30 Z"
     id="path4"
     sodipodi:nodetypes="csssccssscsccsc" />
</svg>
