<?xml version="1.0" encoding="UTF-8" standalone="no"?>
<!-- Uploaded to: SVG Repo, www.svgrepo.com, Generator: SVG Repo Mixer Tools -->

<svg
   fill="#000000"
   version="1.1"
   id="Capa_1"
   width="800px"
   height="800px"
   viewBox="0 0 779.11 779.11"
   xml:space="preserve"
   sodipodi:docname="work.svg"
   inkscape:version="1.4.4 (dcaf3e7d9e, 2026-05-05)"
   xmlns:inkscape="http://www.inkscape.org/namespaces/inkscape"
   xmlns:sodipodi="http://sodipodi.sourceforge.net/DTD/sodipodi-0.dtd"
   xmlns="http://www.w3.org/2000/svg"
   xmlns:svg="http://www.w3.org/2000/svg"><defs
   id="defs4" /><sodipodi:namedview
   id="namedview4"
   pagecolor="#ffffff"
   bordercolor="#000000"
   borderopacity="0.25"
   inkscape:showpageshadow="2"
   inkscape:pageopacity="0.0"
   inkscape:pagecheckerboard="0"
   inkscape:deskcolor="#d1d1d1"
   inkscape:zoom="0.581875"
   inkscape:cx="675.40279"
   inkscape:cy="504.40387"
   inkscape:window-width="3396"
   inkscape:window-height="1396"
   inkscape:window-x="0"
   inkscape:window-y="0"
   inkscape:window-maximized="1"
   inkscape:current-layer="g3" />
<g
   id="g4">
	<g
   id="g3">
		<path
   d="M662.914,632.351H530.07H254.474c-11.49,0-20.806,9.315-20.806,20.806v12.805c0,11.49,9.315,20.81,20.806,20.81h275.598    h132.844h68.82v-54.418L662.914,632.351L662.914,632.351z"
   id="path1" />
		<circle
   cx="211.187"
   cy="189.625"
   r="115.19"
   id="circle1" />
		<path
   d="m 492.234,472.147 -263.969,-0.146 -6.25,-0.02 v -30.632 l -0.217,-25.64 c 0,-61.245 -49.651,-110.898 -110.899,-110.898 -2.075,0 -4.136,0.07 -6.184,0.182 l -0.156,-0.182 C 46.813,304.813 0,351.625 0,409.372 v 277.99801 c 0,0 -0.10377475,7.99583 3.975051,12.07466 3.7477141,3.74771 11.925153,5.23033 11.925153,5.23033 H 216.69258 c 0,0 2.70803,-0.10538 3.96253,-1.35989 1.21873,-1.21872 1.35989,-3.81074 1.35989,-3.81074 l 0,-120.62837 -2.937,-0.231 c -0.209,-0.019 -0.261,0.002 -0.391,0.002 -15.021,0 -29.417,-6.324 -39.562,-17.399 L 89.013,462.885 c -2.873,-3.135 -2.66,-8.003 0.476,-10.874 3.133,-2.873 8.003,-2.659 10.874,0.476 l 90.111,98.362 c 7.322,7.993 17.648,12.881 28.521,13.039 0.723,0.01 10.594,0.152 10.594,0.152 h 262.645 c 25.375,0 45.947,-20.571 45.947,-45.947 10e-4,-25.376 -20.572,-45.946 -45.947,-45.946 z"
   id="path2"
   sodipodi:nodetypes="cccccsccscsccscccscccccccscc" />
		<path
   d="M765.197,309.111c-10.744-3.681-22.439,2.049-26.123,12.794l-87.209,254.59H339.803c-11.356,0-20.567,9.206-20.567,20.564    s9.211,20.566,20.567,20.566h326.507c6.994,0,13.168-3.503,16.879-8.841c1.283-1.694,2.33-3.607,3.059-5.729L778,335.225    C781.67,324.486,775.947,312.79,765.197,309.111z"
   id="path3" />
	</g>
</g>
</svg>
