<?xml version="1.0" encoding="UTF-8" standalone="no"?>
<svg
   width="800px"
   height="800px"
   viewBox="0 0 24 24"
   fill="none"
   version="1.1"
   id="svg1"
   sodipodi:docname="Nextjs.svg"
   inkscape:version="1.4.4 (dcaf3e7d9e, 2026-05-05)"
   xmlns:inkscape="http://www.inkscape.org/namespaces/inkscape"
   xmlns:sodipodi="http://sodipodi.sourceforge.net/DTD/sodipodi-0.dtd"
   xmlns="http://www.w3.org/2000/svg"
   xmlns:svg="http://www.w3.org/2000/svg">
  <defs
     id="defs1" />
  <sodipodi:namedview
     id="namedview1"
     pagecolor="#ffffff"
     bordercolor="#000000"
     borderopacity="0.25"
     inkscape:showpageshadow="2"
     inkscape:pageopacity="0.0"
     inkscape:pagecheckerboard="0"
     inkscape:deskcolor="#d1d1d1"
     inkscape:zoom="0.31731417"
     inkscape:cx="427.02159"
     inkscape:cy="96.11925"
     inkscape:window-width="1081"
     inkscape:window-height="1156"
     inkscape:window-x="0"
     inkscape:window-y="0"
     inkscape:window-maximized="1"
     inkscape:current-layer="svg1" />
  <circle
     cx="12"
     cy="12"
     r="12"
     fill="white"
     id="circle1" />
  <path
     d="m 11.158374,-0.84397433 c -0.05526,0.005025 -0.231209,0.0226113 -0.389489,0.0351731 C 7.1184174,-0.47968126 3.6990522,1.4900147 1.5333663,4.5174197 0.32741725,6.2007095 -0.44388364,8.1101086 -0.73532151,10.132552 c -0.10300825,0.706042 -0.11557022,0.914546 -0.11557022,1.871714 0,0.957275 0.012562,1.165778 0.11557022,1.871714 0.69844489,4.82632 4.13289171,8.881272 8.79086881,10.383634 0.8341085,0.268795 1.7134522,0.45224 2.7133377,0.562756 0.389489,0.04273 2.072741,0.04273 2.46223,0 1.725982,-0.190941 3.1882,-0.618015 4.630284,-1.354149 0.221142,-0.113087 0.263764,-0.143179 0.233672,-0.168345 -0.02013,-0.0151 -0.962211,-1.278759 -2.092875,-2.806287 L 13.947124,17.717395 11.371913,13.906179 C 9.9548877,11.810862 8.7891619,10.097426 8.7791168,10.097426 c -0.010056,-0.0026 -0.020101,1.69084 -0.025134,3.758421 -0.00753,3.620382 -0.010045,3.766131 -0.05527,3.851482 -0.065315,0.123153 -0.1155723,0.173378 -0.2210889,0.228636 -0.080393,0.04027 -0.1507409,0.04776 -0.53011,0.04776 H 7.5128648 l -0.1155723,-0.07282 c -0.075371,-0.04776 -0.13064,-0.110623 -0.1683253,-0.183444 l -0.052764,-0.113087 0.00502,-5.037286 0.00754,-5.0398034 0.077887,-0.097976 c 0.040202,-0.052763 0.1256174,-0.1205938 0.1859202,-0.1532561 0.1029999,-0.050246 0.1432018,-0.055269 0.5778404,-0.055269 0.5125364,0 0.597952,0.02009 0.7311086,0.165807 0.037685,0.040202 1.4320716,2.1405415 3.1003316,4.6705355 1.668153,2.529888 3.9494,5.984388 5.069998,7.680261 l 2.035046,3.082685 0.103021,-0.06779 c 0.911985,-0.592956 1.876766,-1.437144 2.64043,-2.316458 1.625531,-1.866681 2.6732,-4.142873 3.024993,-6.569847 0.103021,-0.705936 0.115551,-0.914439 0.115551,-1.871714 0,-0.957168 -0.01253,-1.165672 -0.115551,-1.871714 -0.698446,-4.8262448 -4.132954,-8.8812079 -8.790867,-10.38360711 -0.8216,-0.26631073 -1.695889,-0.44971366 -2.675663,-0.5602581 -0.241275,-0.0251237 -1.901932,-0.0527598 -2.110437,-0.0326608 z m 5.260941,7.77326883 c 0.120584,0.060302 0.218572,0.1758627 0.253698,0.2964564 0.02013,0.065325 0.02517,1.4622031 0.02013,4.6101701 l -0.0075,4.517258 -0.796434,-1.221037 -0.799004,-1.22093 V 10.62752 c 0,-2.1229678 0.01007,-3.3163436 0.02517,-3.3741292 0.04016,-0.1406945 0.128081,-0.2512325 0.248665,-0.3165572 0.103021,-0.052763 0.140717,-0.057786 0.53524,-0.057786 0.371819,0 0.437144,0.00502 0.520033,0.050247 z"
     fill="#000000"
     id="path1"
     style="stroke-width:1.0709" />
</svg>
